<mxfile version="13.7.3" type="github" host="app.diagrams.net" modified="2020-09-20T04:42:37.644Z" agent="5.0 (Windows NT 10.0; Win64; x64) AppleWebKit/537.36 (KHTML, like Gecko) Chrome/70.0.3538.102 Safari/537.36 Edge/18.18363" etag="OhBGNHDX1l_hPFD85-1O">
  <diagram id="cptyJqA3U-dK_R860sij" name="Page-1">
    <mxGraphModel grid="0" dx="599" dy="3838" gridSize="10" guides="1" tooltips="1" connect="1" arrows="1" fold="1" page="1" pageScale="1" pageWidth="827" pageHeight="1169" math="0" shadow="0">
      <root>
        <mxCell id="0" />
        <mxCell id="1" parent="0" />
        <mxCell id="-Ne3hmI78uOsi_AClF5e-1" value="" parent="1" style="ellipse;whiteSpace=wrap;html=1;aspect=fixed;fillColor=#ffcd28;strokeColor=#d79b00;gradientColor=#ffa500;" vertex="1">
          <mxGeometry as="geometry" x="61" y="-3468" width="20" height="20" />
        </mxCell>
        <mxCell id="-Ne3hmI78uOsi_AClF5e-2" value="" parent="1" style="ellipse;whiteSpace=wrap;html=1;aspect=fixed;fillColor=#d5e8d4;strokeColor=#82b366;gradientColor=#97d077;" vertex="1">
          <mxGeometry as="geometry" x="41" y="-3428" width="20" height="20" />
        </mxCell>
        <mxCell id="-Ne3hmI78uOsi_AClF5e-3" value="" parent="1" style="ellipse;whiteSpace=wrap;html=1;aspect=fixed;fillColor=#d5e8d4;strokeColor=#82b366;gradientColor=#97d077;" vertex="1">
          <mxGeometry as="geometry" x="81" y="-3428" width="20" height="20" />
        </mxCell>
        <mxCell id="-Ne3hmI78uOsi_AClF5e-4" value="" parent="1" style="endArrow=none;html=1;entryX=0.5;entryY=1;entryDx=0;entryDy=0;exitX=0.5;exitY=0;exitDx=0;exitDy=0;" edge="1" source="-Ne3hmI78uOsi_AClF5e-2" target="-Ne3hmI78uOsi_AClF5e-1">
          <mxGeometry as="geometry" width="50" height="50" relative="1">
            <mxPoint as="sourcePoint" x="31" y="-3418" />
            <mxPoint as="targetPoint" x="81" y="-3478" />
          </mxGeometry>
        </mxCell>
        <mxCell id="-Ne3hmI78uOsi_AClF5e-5" value="" parent="1" style="endArrow=none;html=1;exitX=0.5;exitY=0;exitDx=0;exitDy=0;entryX=0.5;entryY=1;entryDx=0;entryDy=0;" edge="1" source="-Ne3hmI78uOsi_AClF5e-3" target="-Ne3hmI78uOsi_AClF5e-1">
          <mxGeometry as="geometry" width="50" height="50" relative="1">
            <mxPoint as="sourcePoint" x="71" y="-3328" />
            <mxPoint as="targetPoint" x="121" y="-3378" />
          </mxGeometry>
        </mxCell>
        <mxCell id="-Ne3hmI78uOsi_AClF5e-7" value="" parent="1" style="ellipse;whiteSpace=wrap;html=1;aspect=fixed;fillColor=#ffcd28;strokeColor=#d79b00;gradientColor=#ffa500;" vertex="1">
          <mxGeometry as="geometry" x="231" y="-3488" width="20" height="20" />
        </mxCell>
        <mxCell id="-Ne3hmI78uOsi_AClF5e-8" value="" parent="1" style="ellipse;whiteSpace=wrap;html=1;aspect=fixed;fillColor=#ffcd28;strokeColor=#d79b00;gradientColor=#ffa500;" vertex="1">
          <mxGeometry as="geometry" x="271" y="-3438" width="20" height="20" />
        </mxCell>
        <mxCell id="-Ne3hmI78uOsi_AClF5e-9" value="" parent="1" style="ellipse;whiteSpace=wrap;html=1;aspect=fixed;fillColor=#ffcd28;strokeColor=#d79b00;gradientColor=#ffa500;" vertex="1">
          <mxGeometry as="geometry" x="201" y="-3438" width="20" height="20" />
        </mxCell>
        <mxCell id="-Ne3hmI78uOsi_AClF5e-10" value="" parent="1" style="ellipse;whiteSpace=wrap;html=1;aspect=fixed;fillColor=#d5e8d4;strokeColor=#82b366;gradientColor=#97d077;" vertex="1">
          <mxGeometry as="geometry" x="181" y="-3398" width="20" height="20" />
        </mxCell>
        <mxCell id="-Ne3hmI78uOsi_AClF5e-11" value="" parent="1" style="ellipse;whiteSpace=wrap;html=1;aspect=fixed;fillColor=#d5e8d4;strokeColor=#82b366;gradientColor=#97d077;" vertex="1">
          <mxGeometry as="geometry" x="221" y="-3398" width="20" height="20" />
        </mxCell>
        <mxCell id="-Ne3hmI78uOsi_AClF5e-12" value="" parent="1" style="ellipse;whiteSpace=wrap;html=1;aspect=fixed;fillColor=#d5e8d4;strokeColor=#82b366;gradientColor=#97d077;" vertex="1">
          <mxGeometry as="geometry" x="251" y="-3398" width="20" height="20" />
        </mxCell>
        <mxCell id="-Ne3hmI78uOsi_AClF5e-13" value="" parent="1" style="ellipse;whiteSpace=wrap;html=1;aspect=fixed;fillColor=#d5e8d4;strokeColor=#82b366;gradientColor=#97d077;" vertex="1">
          <mxGeometry as="geometry" x="291" y="-3398" width="20" height="20" />
        </mxCell>
        <mxCell id="-Ne3hmI78uOsi_AClF5e-14" value="" parent="1" style="endArrow=none;html=1;entryX=0.5;entryY=1;entryDx=0;entryDy=0;exitX=0.5;exitY=0;exitDx=0;exitDy=0;" edge="1" source="-Ne3hmI78uOsi_AClF5e-9" target="-Ne3hmI78uOsi_AClF5e-7">
          <mxGeometry as="geometry" width="50" height="50" relative="1">
            <mxPoint as="sourcePoint" x="321" y="-3308" />
            <mxPoint as="targetPoint" x="371" y="-3358" />
          </mxGeometry>
        </mxCell>
        <mxCell id="-Ne3hmI78uOsi_AClF5e-15" value="" parent="1" style="endArrow=none;html=1;entryX=0.5;entryY=1;entryDx=0;entryDy=0;exitX=0.5;exitY=0;exitDx=0;exitDy=0;" edge="1" source="-Ne3hmI78uOsi_AClF5e-8" target="-Ne3hmI78uOsi_AClF5e-7">
          <mxGeometry as="geometry" width="50" height="50" relative="1">
            <mxPoint as="sourcePoint" x="321" y="-3308" />
            <mxPoint as="targetPoint" x="371" y="-3358" />
          </mxGeometry>
        </mxCell>
        <mxCell id="-Ne3hmI78uOsi_AClF5e-16" value="" parent="1" style="endArrow=none;html=1;entryX=0.5;entryY=1;entryDx=0;entryDy=0;exitX=0.5;exitY=0;exitDx=0;exitDy=0;" edge="1" source="-Ne3hmI78uOsi_AClF5e-10" target="-Ne3hmI78uOsi_AClF5e-9">
          <mxGeometry as="geometry" width="50" height="50" relative="1">
            <mxPoint as="sourcePoint" x="321" y="-3308" />
            <mxPoint as="targetPoint" x="371" y="-3358" />
          </mxGeometry>
        </mxCell>
        <mxCell id="-Ne3hmI78uOsi_AClF5e-17" value="" parent="1" style="endArrow=none;html=1;entryX=0.5;entryY=1;entryDx=0;entryDy=0;exitX=0.5;exitY=0;exitDx=0;exitDy=0;" edge="1" source="-Ne3hmI78uOsi_AClF5e-11" target="-Ne3hmI78uOsi_AClF5e-9">
          <mxGeometry as="geometry" width="50" height="50" relative="1">
            <mxPoint as="sourcePoint" x="321" y="-3308" />
            <mxPoint as="targetPoint" x="371" y="-3358" />
          </mxGeometry>
        </mxCell>
        <mxCell id="-Ne3hmI78uOsi_AClF5e-18" value="" parent="1" style="endArrow=none;html=1;entryX=0.5;entryY=1;entryDx=0;entryDy=0;exitX=0.5;exitY=0;exitDx=0;exitDy=0;" edge="1" source="-Ne3hmI78uOsi_AClF5e-12" target="-Ne3hmI78uOsi_AClF5e-8">
          <mxGeometry as="geometry" width="50" height="50" relative="1">
            <mxPoint as="sourcePoint" x="321" y="-3308" />
            <mxPoint as="targetPoint" x="371" y="-3358" />
          </mxGeometry>
        </mxCell>
        <mxCell id="-Ne3hmI78uOsi_AClF5e-19" value="" parent="1" style="endArrow=none;html=1;entryX=0.5;entryY=1;entryDx=0;entryDy=0;exitX=0.5;exitY=0;exitDx=0;exitDy=0;" edge="1" source="-Ne3hmI78uOsi_AClF5e-13" target="-Ne3hmI78uOsi_AClF5e-8">
          <mxGeometry as="geometry" width="50" height="50" relative="1">
            <mxPoint as="sourcePoint" x="321" y="-3308" />
            <mxPoint as="targetPoint" x="371" y="-3358" />
          </mxGeometry>
        </mxCell>
        <mxCell id="-Ne3hmI78uOsi_AClF5e-22" value="" parent="1" style="shape=flexArrow;endArrow=classic;html=1;width=18;endSize=6.97;fillColor=#6d8764;strokeColor=#3A5431;" edge="1">
          <mxGeometry as="geometry" width="50" height="50" relative="1">
            <mxPoint as="sourcePoint" x="315" y="-3438.5" />
            <mxPoint as="targetPoint" x="375" y="-3439" />
          </mxGeometry>
        </mxCell>
        <mxCell id="-Ne3hmI78uOsi_AClF5e-23" value="" parent="1" style="shape=flexArrow;endArrow=classic;html=1;width=18;endSize=6.97;fillColor=#6d8764;strokeColor=#3A5431;" edge="1">
          <mxGeometry as="geometry" width="50" height="50" relative="1">
            <mxPoint as="sourcePoint" x="121" y="-3438" />
            <mxPoint as="targetPoint" x="181" y="-3438.5" />
          </mxGeometry>
        </mxCell>
        <mxCell id="-Ne3hmI78uOsi_AClF5e-24" value="" parent="1" style="ellipse;whiteSpace=wrap;html=1;aspect=fixed;fillColor=#ffcd28;strokeColor=#d79b00;gradientColor=#ffa500;" vertex="1">
          <mxGeometry as="geometry" x="890" y="-2690" width="20" height="20" />
        </mxCell>
        <mxCell id="-Ne3hmI78uOsi_AClF5e-25" value="" parent="1" style="ellipse;whiteSpace=wrap;html=1;aspect=fixed;fillColor=#d5e8d4;strokeColor=#82b366;gradientColor=#97d077;" vertex="1">
          <mxGeometry as="geometry" x="870" y="-2650" width="20" height="20" />
        </mxCell>
        <mxCell id="-Ne3hmI78uOsi_AClF5e-26" value="" parent="1" style="ellipse;whiteSpace=wrap;html=1;aspect=fixed;fillColor=#ffcd28;strokeColor=#d79b00;gradientColor=#ffa500;" vertex="1">
          <mxGeometry as="geometry" x="910" y="-2650" width="20" height="20" />
        </mxCell>
        <mxCell id="-Ne3hmI78uOsi_AClF5e-27" value="" parent="1" style="endArrow=none;html=1;entryX=0.5;entryY=1;entryDx=0;entryDy=0;exitX=0.5;exitY=0;exitDx=0;exitDy=0;" edge="1" source="-Ne3hmI78uOsi_AClF5e-25" target="-Ne3hmI78uOsi_AClF5e-24">
          <mxGeometry as="geometry" width="50" height="50" relative="1">
            <mxPoint as="sourcePoint" x="860" y="-2650" />
            <mxPoint as="targetPoint" x="910" y="-2710" />
          </mxGeometry>
        </mxCell>
        <mxCell id="-Ne3hmI78uOsi_AClF5e-28" value="" parent="1" style="endArrow=none;html=1;exitX=0.5;exitY=0;exitDx=0;exitDy=0;entryX=0.5;entryY=1;entryDx=0;entryDy=0;" edge="1" source="-Ne3hmI78uOsi_AClF5e-26" target="-Ne3hmI78uOsi_AClF5e-24">
          <mxGeometry as="geometry" width="50" height="50" relative="1">
            <mxPoint as="sourcePoint" x="900" y="-2560" />
            <mxPoint as="targetPoint" x="950" y="-2610" />
          </mxGeometry>
        </mxCell>
        <mxCell id="-Ne3hmI78uOsi_AClF5e-29" value="" parent="1" style="ellipse;whiteSpace=wrap;html=1;aspect=fixed;fillColor=#ffcd28;strokeColor=#d79b00;gradientColor=#ffa500;" vertex="1">
          <mxGeometry as="geometry" x="1073" y="-2713" width="20" height="20" />
        </mxCell>
        <mxCell id="-Ne3hmI78uOsi_AClF5e-30" value="" parent="1" style="ellipse;whiteSpace=wrap;html=1;aspect=fixed;fillColor=#ffcd28;strokeColor=#d79b00;gradientColor=#ffa500;" vertex="1">
          <mxGeometry as="geometry" x="1113" y="-2673" width="20" height="20" />
        </mxCell>
        <mxCell id="-Ne3hmI78uOsi_AClF5e-31" value="" parent="1" style="ellipse;whiteSpace=wrap;html=1;aspect=fixed;fillColor=#ffcd28;strokeColor=#d79b00;gradientColor=#ffa500;" vertex="1">
          <mxGeometry as="geometry" x="1043" y="-2673" width="20" height="20" />
        </mxCell>
        <mxCell id="-Ne3hmI78uOsi_AClF5e-32" value="" parent="1" style="ellipse;whiteSpace=wrap;html=1;aspect=fixed;fillColor=#ffcd28;strokeColor=#d79b00;gradientColor=#ffa500;" vertex="1">
          <mxGeometry as="geometry" x="1023" y="-2633" width="20" height="20" />
        </mxCell>
        <mxCell id="-Ne3hmI78uOsi_AClF5e-33" value="" parent="1" style="ellipse;whiteSpace=wrap;html=1;aspect=fixed;fillColor=#d5e8d4;strokeColor=#82b366;gradientColor=#97d077;" vertex="1">
          <mxGeometry as="geometry" x="1073" y="-2633" width="20" height="20" />
        </mxCell>
        <mxCell id="-Ne3hmI78uOsi_AClF5e-35" value="" parent="1" style="endArrow=none;html=1;entryX=0.5;entryY=1;entryDx=0;entryDy=0;exitX=0.5;exitY=0;exitDx=0;exitDy=0;" edge="1" source="-Ne3hmI78uOsi_AClF5e-31" target="-Ne3hmI78uOsi_AClF5e-29">
          <mxGeometry as="geometry" width="50" height="50" relative="1">
            <mxPoint as="sourcePoint" x="1163" y="-2523" />
            <mxPoint as="targetPoint" x="1213" y="-2573" />
          </mxGeometry>
        </mxCell>
        <mxCell id="-Ne3hmI78uOsi_AClF5e-36" value="" parent="1" style="endArrow=none;html=1;entryX=0.5;entryY=1;entryDx=0;entryDy=0;exitX=0.5;exitY=0;exitDx=0;exitDy=0;" edge="1" source="-Ne3hmI78uOsi_AClF5e-30" target="-Ne3hmI78uOsi_AClF5e-29">
          <mxGeometry as="geometry" width="50" height="50" relative="1">
            <mxPoint as="sourcePoint" x="1163" y="-2523" />
            <mxPoint as="targetPoint" x="1213" y="-2573" />
          </mxGeometry>
        </mxCell>
        <mxCell id="-Ne3hmI78uOsi_AClF5e-37" value="" parent="1" style="endArrow=none;html=1;entryX=0.5;entryY=1;entryDx=0;entryDy=0;exitX=0.5;exitY=0;exitDx=0;exitDy=0;" edge="1" source="-Ne3hmI78uOsi_AClF5e-32" target="-Ne3hmI78uOsi_AClF5e-31">
          <mxGeometry as="geometry" width="50" height="50" relative="1">
            <mxPoint as="sourcePoint" x="1163" y="-2523" />
            <mxPoint as="targetPoint" x="1213" y="-2573" />
          </mxGeometry>
        </mxCell>
        <mxCell id="-Ne3hmI78uOsi_AClF5e-38" value="" parent="1" style="endArrow=none;html=1;entryX=0.5;entryY=1;entryDx=0;entryDy=0;exitX=0.5;exitY=0;exitDx=0;exitDy=0;" edge="1" source="-Ne3hmI78uOsi_AClF5e-33" target="-Ne3hmI78uOsi_AClF5e-31">
          <mxGeometry as="geometry" width="50" height="50" relative="1">
            <mxPoint as="sourcePoint" x="1163" y="-2523" />
            <mxPoint as="targetPoint" x="1213" y="-2573" />
          </mxGeometry>
        </mxCell>
        <mxCell id="-Ne3hmI78uOsi_AClF5e-40" value="" parent="1" style="ellipse;whiteSpace=wrap;html=1;aspect=fixed;fillColor=#ffcd28;strokeColor=#d79b00;gradientColor=#ffa500;" vertex="1">
          <mxGeometry as="geometry" x="1302" y="-2740" width="20" height="20" />
        </mxCell>
        <mxCell id="-Ne3hmI78uOsi_AClF5e-41" value="" parent="1" style="ellipse;aspect=fixed;fillColor=#d5e8d4;strokeColor=#82b366;gradientColor=#97d077;html=1;whiteSpace=wrap;" vertex="1">
          <mxGeometry as="geometry" x="1342" y="-2700" width="20" height="20" />
        </mxCell>
        <mxCell id="-Ne3hmI78uOsi_AClF5e-42" value="" parent="1" style="ellipse;whiteSpace=wrap;html=1;aspect=fixed;fillColor=#ffcd28;strokeColor=#d79b00;gradientColor=#ffa500;" vertex="1">
          <mxGeometry as="geometry" x="1272" y="-2700" width="20" height="20" />
        </mxCell>
        <mxCell id="-Ne3hmI78uOsi_AClF5e-43" value="" parent="1" style="ellipse;whiteSpace=wrap;html=1;aspect=fixed;fillColor=#ffcd28;strokeColor=#d79b00;gradientColor=#ffa500;" vertex="1">
          <mxGeometry as="geometry" x="1252" y="-2660" width="20" height="20" />
        </mxCell>
        <mxCell id="-Ne3hmI78uOsi_AClF5e-45" value="" parent="1" style="endArrow=none;html=1;entryX=0.5;entryY=1;entryDx=0;entryDy=0;exitX=0.5;exitY=0;exitDx=0;exitDy=0;" edge="1" source="-Ne3hmI78uOsi_AClF5e-42" target="-Ne3hmI78uOsi_AClF5e-40">
          <mxGeometry as="geometry" width="50" height="50" relative="1">
            <mxPoint as="sourcePoint" x="1412" y="-2590" />
            <mxPoint as="targetPoint" x="1462" y="-2640" />
          </mxGeometry>
        </mxCell>
        <mxCell id="-Ne3hmI78uOsi_AClF5e-46" value="" parent="1" style="endArrow=none;html=1;entryX=0.5;entryY=1;entryDx=0;entryDy=0;exitX=0.5;exitY=0;exitDx=0;exitDy=0;" edge="1" source="-Ne3hmI78uOsi_AClF5e-41" target="-Ne3hmI78uOsi_AClF5e-40">
          <mxGeometry as="geometry" width="50" height="50" relative="1">
            <mxPoint as="sourcePoint" x="1412" y="-2590" />
            <mxPoint as="targetPoint" x="1462" y="-2640" />
          </mxGeometry>
        </mxCell>
        <mxCell id="-Ne3hmI78uOsi_AClF5e-47" value="" parent="1" style="endArrow=none;html=1;entryX=0.5;entryY=1;entryDx=0;entryDy=0;exitX=0.5;exitY=0;exitDx=0;exitDy=0;" edge="1" source="-Ne3hmI78uOsi_AClF5e-43" target="-Ne3hmI78uOsi_AClF5e-42">
          <mxGeometry as="geometry" width="50" height="50" relative="1">
            <mxPoint as="sourcePoint" x="1412" y="-2590" />
            <mxPoint as="targetPoint" x="1462" y="-2640" />
          </mxGeometry>
        </mxCell>
        <mxCell id="-Ne3hmI78uOsi_AClF5e-48" value="" parent="1" style="endArrow=none;html=1;entryX=0.5;entryY=1;entryDx=0;entryDy=0;exitX=0.5;exitY=0;exitDx=0;exitDy=0;" edge="1" source="-Ne3hmI78uOsi_AClF5e-49" target="-Ne3hmI78uOsi_AClF5e-42">
          <mxGeometry as="geometry" width="50" height="50" relative="1">
            <mxPoint as="sourcePoint" x="1362" y="-2670" />
            <mxPoint as="targetPoint" x="1462" y="-2640" />
          </mxGeometry>
        </mxCell>
        <mxCell id="-Ne3hmI78uOsi_AClF5e-49" value="" parent="1" style="ellipse;whiteSpace=wrap;html=1;aspect=fixed;fillColor=#ffcd28;strokeColor=#d79b00;gradientColor=#ffa500;" vertex="1">
          <mxGeometry as="geometry" x="1302" y="-2660" width="20" height="20" />
        </mxCell>
        <mxCell id="-Ne3hmI78uOsi_AClF5e-50" value="" parent="1" style="ellipse;whiteSpace=wrap;html=1;aspect=fixed;fillColor=#ffcd28;strokeColor=#d79b00;gradientColor=#ffa500;" vertex="1">
          <mxGeometry as="geometry" x="1282" y="-2620" width="20" height="20" />
        </mxCell>
        <mxCell id="-Ne3hmI78uOsi_AClF5e-51" value="" parent="1" style="ellipse;whiteSpace=wrap;html=1;aspect=fixed;fillColor=#ffcd28;strokeColor=#d79b00;gradientColor=#ffa500;" vertex="1">
          <mxGeometry as="geometry" x="1332" y="-2620" width="20" height="20" />
        </mxCell>
        <mxCell id="-Ne3hmI78uOsi_AClF5e-52" value="" parent="1" style="endArrow=none;html=1;entryX=0.5;entryY=1;entryDx=0;entryDy=0;exitX=0.5;exitY=0;exitDx=0;exitDy=0;" edge="1" source="-Ne3hmI78uOsi_AClF5e-50" target="-Ne3hmI78uOsi_AClF5e-49">
          <mxGeometry as="geometry" width="50" height="50" relative="1">
            <mxPoint as="sourcePoint" x="1312" y="-2590" />
            <mxPoint as="targetPoint" x="1362" y="-2650" />
          </mxGeometry>
        </mxCell>
        <mxCell id="-Ne3hmI78uOsi_AClF5e-53" value="" parent="1" style="endArrow=none;html=1;exitX=0.5;exitY=0;exitDx=0;exitDy=0;entryX=0.5;entryY=1;entryDx=0;entryDy=0;" edge="1" source="-Ne3hmI78uOsi_AClF5e-51" target="-Ne3hmI78uOsi_AClF5e-49">
          <mxGeometry as="geometry" width="50" height="50" relative="1">
            <mxPoint as="sourcePoint" x="1352" y="-2500" />
            <mxPoint as="targetPoint" x="1402" y="-2550" />
          </mxGeometry>
        </mxCell>
        <mxCell id="-Ne3hmI78uOsi_AClF5e-54" value="" parent="1" style="shape=flexArrow;endArrow=classic;html=1;width=18;endSize=6.97;fillColor=#6d8764;strokeColor=#3A5431;" edge="1">
          <mxGeometry as="geometry" width="50" height="50" relative="1">
            <mxPoint as="sourcePoint" x="950" y="-2669.5" />
            <mxPoint as="targetPoint" x="1010" y="-2670" />
          </mxGeometry>
        </mxCell>
        <mxCell id="-Ne3hmI78uOsi_AClF5e-55" value="" parent="1" style="shape=flexArrow;endArrow=classic;html=1;width=18;endSize=6.97;fillColor=#6d8764;strokeColor=#3A5431;" edge="1">
          <mxGeometry as="geometry" width="50" height="50" relative="1">
            <mxPoint as="sourcePoint" x="1168" y="-2670.5" />
            <mxPoint as="targetPoint" x="1228" y="-2671" />
          </mxGeometry>
        </mxCell>
        <mxCell id="-Ne3hmI78uOsi_AClF5e-56" value="" parent="1" style="shape=flexArrow;endArrow=classic;html=1;width=18;endSize=6.97;fillColor=#6d8764;strokeColor=#3A5431;" edge="1">
          <mxGeometry as="geometry" width="50" height="50" relative="1">
            <mxPoint as="sourcePoint" x="1387" y="-2672.5" />
            <mxPoint as="targetPoint" x="1447" y="-2673" />
          </mxGeometry>
        </mxCell>
        <mxCell id="DtvcjG2HMvPcj9f6u7JM-5" value="&lt;font style=&quot;font-size: 17px&quot;&gt;原始训练样本&lt;/font&gt;" parent="1" style="rounded=1;whiteSpace=wrap;html=1;fontColor=#000000;" vertex="1">
          <mxGeometry as="geometry" x="233" y="-3349" width="282" height="35" />
        </mxCell>
        <mxCell id="DtvcjG2HMvPcj9f6u7JM-8" value="&lt;font face=&quot;Tahoma&quot; style=&quot;font-size: 14px&quot;&gt;样本1&lt;/font&gt;" parent="1" style="rounded=0;whiteSpace=wrap;html=1;fontColor=#000000;" vertex="1">
          <mxGeometry as="geometry" x="128" y="-3235" width="101" height="29" />
        </mxCell>
        <mxCell id="DtvcjG2HMvPcj9f6u7JM-9" value="&lt;font face=&quot;Tahoma&quot; style=&quot;font-size: 14px&quot;&gt;样本2&lt;/font&gt;" parent="1" style="rounded=0;whiteSpace=wrap;html=1;fontColor=#000000;" vertex="1">
          <mxGeometry as="geometry" x="237" y="-3235" width="101" height="29" />
        </mxCell>
        <mxCell id="DtvcjG2HMvPcj9f6u7JM-10" value="&lt;font face=&quot;Tahoma&quot; style=&quot;font-size: 14px&quot;&gt;样本3&lt;/font&gt;" parent="1" style="rounded=0;whiteSpace=wrap;html=1;fontColor=#000000;" vertex="1">
          <mxGeometry as="geometry" x="346" y="-3235" width="101" height="29" />
        </mxCell>
        <mxCell id="DtvcjG2HMvPcj9f6u7JM-11" value="&lt;font face=&quot;Tahoma&quot; style=&quot;font-size: 14px&quot;&gt;样本n&lt;/font&gt;" parent="1" style="rounded=0;whiteSpace=wrap;html=1;fontColor=#000000;" vertex="1">
          <mxGeometry as="geometry" x="524" y="-3235" width="101" height="29" />
        </mxCell>
        <mxCell id="DtvcjG2HMvPcj9f6u7JM-12" value="" parent="1" style="endArrow=none;dashed=1;html=1;dashPattern=1 3;strokeWidth=2;fontColor=#000000;" edge="1">
          <mxGeometry as="geometry" width="50" height="50" relative="1">
            <mxPoint as="sourcePoint" x="468" y="-3221" />
            <mxPoint as="targetPoint" x="511" y="-3221" />
          </mxGeometry>
        </mxCell>
        <mxCell id="DtvcjG2HMvPcj9f6u7JM-13" value="" parent="1" style="shape=flexArrow;endArrow=classic;html=1;fontColor=#000000;entryX=0.5;entryY=0;entryDx=0;entryDy=0;endWidth=10;endSize=10.21;" edge="1" target="DtvcjG2HMvPcj9f6u7JM-8">
          <mxGeometry as="geometry" width="50" height="50" relative="1">
            <mxPoint as="sourcePoint" x="285" y="-3311" />
            <mxPoint as="targetPoint" x="366" y="-3238" />
          </mxGeometry>
        </mxCell>
        <mxCell id="DtvcjG2HMvPcj9f6u7JM-14" value="" parent="1" style="shape=flexArrow;endArrow=classic;html=1;fontColor=#000000;entryX=0.5;entryY=0;entryDx=0;entryDy=0;endWidth=16;endSize=4.8;" edge="1" target="DtvcjG2HMvPcj9f6u7JM-9">
          <mxGeometry as="geometry" width="50" height="50" relative="1">
            <mxPoint as="sourcePoint" x="334" y="-3310" />
            <mxPoint as="targetPoint" x="187.5" y="-3239" />
          </mxGeometry>
        </mxCell>
        <mxCell id="DtvcjG2HMvPcj9f6u7JM-15" value="" parent="1" style="shape=flexArrow;endArrow=classic;html=1;fontColor=#000000;entryX=0.5;entryY=0;entryDx=0;entryDy=0;endWidth=16;endSize=4.8;" edge="1" target="DtvcjG2HMvPcj9f6u7JM-10">
          <mxGeometry as="geometry" width="50" height="50" relative="1">
            <mxPoint as="sourcePoint" x="379" y="-3311" />
            <mxPoint as="targetPoint" x="330.5" y="-3230" />
          </mxGeometry>
        </mxCell>
        <mxCell id="DtvcjG2HMvPcj9f6u7JM-7" value="&lt;font face=&quot;Tahoma&quot;&gt;Bootstrap Resampling&lt;/font&gt;" parent="1" style="rounded=1;whiteSpace=wrap;html=1;gradientColor=#7ea6e0;fillColor=#dae8fc;strokeColor=#6c8ebf;" vertex="1">
          <mxGeometry as="geometry" x="293" y="-3293" width="145" height="32" />
        </mxCell>
        <mxCell id="DtvcjG2HMvPcj9f6u7JM-16" value="" parent="1" style="shape=flexArrow;endArrow=classic;html=1;fontColor=#000000;entryX=0.5;entryY=0;entryDx=0;entryDy=0;endWidth=10;endSize=10.21;exitX=0.819;exitY=1.114;exitDx=0;exitDy=0;exitPerimeter=0;" edge="1" source="DtvcjG2HMvPcj9f6u7JM-5" target="DtvcjG2HMvPcj9f6u7JM-11">
          <mxGeometry as="geometry" width="50" height="50" relative="1">
            <mxPoint as="sourcePoint" x="438" y="-3304" />
            <mxPoint as="targetPoint" x="305.5" y="-3239" />
          </mxGeometry>
        </mxCell>
        <mxCell id="DtvcjG2HMvPcj9f6u7JM-17" value="" parent="1" style="shape=flexArrow;endArrow=classic;html=1;fontColor=#000000;width=6;endSize=5.33;endWidth=10;" edge="1">
          <mxGeometry as="geometry" width="50" height="50" relative="1">
            <mxPoint as="sourcePoint" x="181" y="-3198" />
            <mxPoint as="targetPoint" x="181" y="-3132" />
          </mxGeometry>
        </mxCell>
        <mxCell id="DtvcjG2HMvPcj9f6u7JM-18" value="" parent="1" style="shape=flexArrow;endArrow=classic;html=1;fontColor=#000000;width=6;endSize=5.33;endWidth=10;" edge="1">
          <mxGeometry as="geometry" width="50" height="50" relative="1">
            <mxPoint as="sourcePoint" x="290" y="-3198" />
            <mxPoint as="targetPoint" x="290" y="-3132" />
          </mxGeometry>
        </mxCell>
        <mxCell id="DtvcjG2HMvPcj9f6u7JM-19" value="" parent="1" style="shape=flexArrow;endArrow=classic;html=1;fontColor=#000000;width=6;endSize=5.33;endWidth=10;" edge="1">
          <mxGeometry as="geometry" width="50" height="50" relative="1">
            <mxPoint as="sourcePoint" x="396" y="-3198" />
            <mxPoint as="targetPoint" x="396" y="-3132" />
          </mxGeometry>
        </mxCell>
        <mxCell id="DtvcjG2HMvPcj9f6u7JM-20" value="" parent="1" style="shape=flexArrow;endArrow=classic;html=1;fontColor=#000000;width=6;endSize=5.33;endWidth=10;" edge="1">
          <mxGeometry as="geometry" width="50" height="50" relative="1">
            <mxPoint as="sourcePoint" x="574" y="-3198" />
            <mxPoint as="targetPoint" x="574" y="-3132" />
          </mxGeometry>
        </mxCell>
        <mxCell id="DtvcjG2HMvPcj9f6u7JM-35" value="" parent="1" style="endArrow=none;html=1;fontColor=#000000;" edge="1">
          <mxGeometry as="geometry" width="50" height="50" relative="1">
            <mxPoint as="sourcePoint" x="180" y="-3119" />
            <mxPoint as="targetPoint" x="180" y="-3119" />
          </mxGeometry>
        </mxCell>
        <mxCell id="DtvcjG2HMvPcj9f6u7JM-38" value="Orgchart" parent="1" style="swimlane;html=1;startSize=20;horizontal=1;containerType=tree;newEdgeStyle={&quot;edgeStyle&quot;:&quot;elbowEdgeStyle&quot;,&quot;startArrow&quot;:&quot;none&quot;,&quot;endArrow&quot;:&quot;none&quot;};fontColor=#000000;" vertex="1">
          <mxGeometry as="geometry" x="101" y="-3125" width="280" height="220" />
        </mxCell>
        <mxCell id="DtvcjG2HMvPcj9f6u7JM-39" value="" parent="DtvcjG2HMvPcj9f6u7JM-38" style="edgeStyle=elbowEdgeStyle;elbow=vertical;startArrow=none;endArrow=none;rounded=0;" edge="1" source="DtvcjG2HMvPcj9f6u7JM-41" target="DtvcjG2HMvPcj9f6u7JM-42">
          <mxGeometry as="geometry" relative="1" />
        </mxCell>
        <mxCell id="DtvcjG2HMvPcj9f6u7JM-40" value="" parent="DtvcjG2HMvPcj9f6u7JM-38" style="edgeStyle=elbowEdgeStyle;elbow=vertical;startArrow=none;endArrow=none;rounded=0;" edge="1" source="DtvcjG2HMvPcj9f6u7JM-41" target="DtvcjG2HMvPcj9f6u7JM-43">
          <mxGeometry as="geometry" relative="1" />
        </mxCell>
        <UserObject id="DtvcjG2HMvPcj9f6u7JM-41" label="Organization" treeRoot="1">
          <mxCell parent="DtvcjG2HMvPcj9f6u7JM-38" style="whiteSpace=wrap;html=1;align=center;treeFolding=1;treeMoving=1;newEdgeStyle={&quot;edgeStyle&quot;:&quot;elbowEdgeStyle&quot;,&quot;startArrow&quot;:&quot;none&quot;,&quot;endArrow&quot;:&quot;none&quot;};" vertex="1">
            <mxGeometry as="geometry" x="80" y="40" width="120" height="60" />
          </mxCell>
        </UserObject>
        <mxCell id="DtvcjG2HMvPcj9f6u7JM-42" value="Division" parent="DtvcjG2HMvPcj9f6u7JM-38" style="whiteSpace=wrap;html=1;align=center;verticalAlign=middle;treeFolding=1;treeMoving=1;newEdgeStyle={&quot;edgeStyle&quot;:&quot;elbowEdgeStyle&quot;,&quot;startArrow&quot;:&quot;none&quot;,&quot;endArrow&quot;:&quot;none&quot;};" vertex="1">
          <mxGeometry as="geometry" x="20" y="140" width="100" height="60" />
        </mxCell>
        <mxCell id="DtvcjG2HMvPcj9f6u7JM-43" value="Division" parent="DtvcjG2HMvPcj9f6u7JM-38" style="whiteSpace=wrap;html=1;align=center;verticalAlign=middle;treeFolding=1;treeMoving=1;newEdgeStyle={&quot;edgeStyle&quot;:&quot;elbowEdgeStyle&quot;,&quot;startArrow&quot;:&quot;none&quot;,&quot;endArrow&quot;:&quot;none&quot;};" vertex="1">
          <mxGeometry as="geometry" x="160" y="140" width="100" height="60" />
        </mxCell>
        <mxCell id="DtvcjG2HMvPcj9f6u7JM-46" value="" parent="1" style="edgeStyle=elbowEdgeStyle;elbow=vertical;startArrow=none;endArrow=none;rounded=0;" edge="1" source="DtvcjG2HMvPcj9f6u7JM-48" target="DtvcjG2HMvPcj9f6u7JM-49">
          <mxGeometry as="geometry" relative="1" />
        </mxCell>
        <mxCell id="DtvcjG2HMvPcj9f6u7JM-47" value="" parent="1" style="edgeStyle=elbowEdgeStyle;elbow=vertical;startArrow=none;endArrow=none;rounded=0;" edge="1" source="DtvcjG2HMvPcj9f6u7JM-48" target="DtvcjG2HMvPcj9f6u7JM-50">
          <mxGeometry as="geometry" relative="1" />
        </mxCell>
        <UserObject id="DtvcjG2HMvPcj9f6u7JM-48" label="Organization" treeRoot="1">
          <mxCell parent="1" style="whiteSpace=wrap;html=1;align=center;treeFolding=1;treeMoving=1;newEdgeStyle={&quot;edgeStyle&quot;:&quot;elbowEdgeStyle&quot;,&quot;startArrow&quot;:&quot;none&quot;,&quot;endArrow&quot;:&quot;none&quot;};" vertex="1">
            <mxGeometry as="geometry" x="530" y="-3099" width="120" height="60" />
          </mxCell>
        </UserObject>
        <mxCell id="DtvcjG2HMvPcj9f6u7JM-49" value="Division" parent="1" style="whiteSpace=wrap;html=1;align=center;verticalAlign=middle;treeFolding=1;treeMoving=1;newEdgeStyle={&quot;edgeStyle&quot;:&quot;elbowEdgeStyle&quot;,&quot;startArrow&quot;:&quot;none&quot;,&quot;endArrow&quot;:&quot;none&quot;};" vertex="1">
          <mxGeometry as="geometry" x="470" y="-2999" width="100" height="60" />
        </mxCell>
        <mxCell id="DtvcjG2HMvPcj9f6u7JM-50" value="Division" parent="1" style="whiteSpace=wrap;html=1;align=center;verticalAlign=middle;treeFolding=1;treeMoving=1;newEdgeStyle={&quot;edgeStyle&quot;:&quot;elbowEdgeStyle&quot;,&quot;startArrow&quot;:&quot;none&quot;,&quot;endArrow&quot;:&quot;none&quot;};" vertex="1">
          <mxGeometry as="geometry" x="610" y="-2999" width="100" height="60" />
        </mxCell>
      </root>
    </mxGraphModel>
  </diagram>
</mxfile>
